<svg xmlns="http://www.w3.org/2000/svg" width="1120" height="608" viewBox="0 0 1120 608" role="img" aria-labelledby="title desc">
<title id="title">2022 World Cup: winner-perspective knockout ΔE_m</title>
<desc id="desc">Winner minus opponent; sorted high to low; primary dismissal multiplier rho = 2.</desc>
<rect width="1120" height="608" fill="#fbfaf7"/>
<text x="36" y="44" font-family="Arial, sans-serif" font-size="24" font-weight="700" fill="#162434">2022 World Cup: winner-perspective knockout ΔE_m</text>
<text x="36" y="76" font-family="Arial, sans-serif" font-size="14" fill="#4e5b68">Winner minus opponent; sorted high to low; primary dismissal multiplier rho = 2.</text>
<line x1="705.00" y1="98" x2="705.00" y2="536" stroke="#687683" stroke-width="1"/>
<text x="368" y="133" text-anchor="end" font-family="Arial, sans-serif" font-size="13" fill="#263747">M59 France vs England</text>
<rect x="705.00" y="120" width="233.05" height="17" rx="2" fill="#2f718c"/>
<text x="945.05" y="133" text-anchor="start" font-family="Arial, sans-serif" font-size="12" fill="#263747">121</text>
<text x="368" y="161" text-anchor="end" font-family="Arial, sans-serif" font-size="13" fill="#263747">M57 Argentina vs Netherlands</text>
<rect x="705.00" y="148" width="127.12" height="17" rx="2" fill="#2f718c"/>
<text x="839.12" y="161" text-anchor="start" font-family="Arial, sans-serif" font-size="12" fill="#263747">66</text>
<text x="368" y="189" text-anchor="end" font-family="Arial, sans-serif" font-size="13" fill="#263747">M49 Netherlands vs United States</text>
<rect x="705.00" y="176" width="90.52" height="17" rx="2" fill="#2f718c"/>
<text x="802.52" y="189" text-anchor="start" font-family="Arial, sans-serif" font-size="12" fill="#263747">47</text>
<text x="368" y="217" text-anchor="end" font-family="Arial, sans-serif" font-size="13" fill="#263747">M60 Morocco vs Portugal</text>
<rect x="705.00" y="204" width="71.26" height="17" rx="2" fill="#2f718c"/>
<text x="783.26" y="217" text-anchor="start" font-family="Arial, sans-serif" font-size="12" fill="#263747">37</text>
<text x="368" y="245" text-anchor="end" font-family="Arial, sans-serif" font-size="13" fill="#263747">M53 Croatia vs Japan</text>
<rect x="705.00" y="232" width="69.34" height="17" rx="2" fill="#2f718c"/>
<text x="781.34" y="245" text-anchor="start" font-family="Arial, sans-serif" font-size="12" fill="#263747">36</text>
<text x="368" y="273" text-anchor="end" font-family="Arial, sans-serif" font-size="13" fill="#263747">M52 France vs Poland</text>
<rect x="705.00" y="260" width="5.78" height="17" rx="2" fill="#2f718c"/>
<text x="717.78" y="273" text-anchor="start" font-family="Arial, sans-serif" font-size="12" fill="#263747">3</text>
<text x="368" y="301" text-anchor="end" font-family="Arial, sans-serif" font-size="13" fill="#263747">M55 Morocco vs Spain</text>
<rect x="679.96" y="288" width="25.04" height="17" rx="2" fill="#b65b4f"/>
<text x="672.96" y="301" text-anchor="end" font-family="Arial, sans-serif" font-size="12" fill="#263747">-13</text>
<text x="368" y="329" text-anchor="end" font-family="Arial, sans-serif" font-size="13" fill="#263747">M64 Argentina vs France</text>
<rect x="670.33" y="316" width="34.67" height="17" rx="2" fill="#b65b4f"/>
<text x="663.33" y="329" text-anchor="end" font-family="Arial, sans-serif" font-size="12" fill="#263747">-18</text>
<text x="368" y="357" text-anchor="end" font-family="Arial, sans-serif" font-size="13" fill="#263747">M51 England vs Senegal</text>
<rect x="668.41" y="344" width="36.59" height="17" rx="2" fill="#b65b4f"/>
<text x="661.41" y="357" text-anchor="end" font-family="Arial, sans-serif" font-size="12" fill="#263747">-19</text>
<text x="368" y="385" text-anchor="end" font-family="Arial, sans-serif" font-size="13" fill="#263747">M54 Brazil vs Korea Republic</text>
<rect x="606.77" y="372" width="98.23" height="17" rx="2" fill="#b65b4f"/>
<text x="599.77" y="385" text-anchor="end" font-family="Arial, sans-serif" font-size="12" fill="#263747">-51</text>
<text x="368" y="413" text-anchor="end" font-family="Arial, sans-serif" font-size="13" fill="#263747">M62 France vs Morocco</text>
<rect x="572.10" y="400" width="132.90" height="17" rx="2" fill="#b65b4f"/>
<text x="565.10" y="413" text-anchor="end" font-family="Arial, sans-serif" font-size="12" fill="#263747">-69</text>
<text x="368" y="441" text-anchor="end" font-family="Arial, sans-serif" font-size="13" fill="#263747">M61 Argentina vs Croatia</text>
<rect x="560.55" y="428" width="144.45" height="17" rx="2" fill="#b65b4f"/>
<text x="553.55" y="441" text-anchor="end" font-family="Arial, sans-serif" font-size="12" fill="#263747">-75</text>
<text x="368" y="469" text-anchor="end" font-family="Arial, sans-serif" font-size="13" fill="#263747">M56 Portugal vs Switzerland</text>
<rect x="535.51" y="456" width="169.49" height="17" rx="2" fill="#b65b4f"/>
<text x="528.51" y="469" text-anchor="end" font-family="Arial, sans-serif" font-size="12" fill="#263747">-88</text>
<text x="368" y="497" text-anchor="end" font-family="Arial, sans-serif" font-size="13" fill="#263747">M58 Croatia vs Brazil</text>
<rect x="510.47" y="484" width="194.53" height="17" rx="2" fill="#b65b4f"/>
<text x="503.47" y="497" text-anchor="end" font-family="Arial, sans-serif" font-size="12" fill="#263747">-101</text>
<text x="368" y="525" text-anchor="end" font-family="Arial, sans-serif" font-size="13" fill="#263747">M50 Argentina vs Australia</text>
<rect x="429.58" y="512" width="275.42" height="17" rx="2" fill="#b65b4f"/>
<text x="422.58" y="525" text-anchor="end" font-family="Arial, sans-serif" font-size="12" fill="#263747">-143</text>
<text x="560" y="578" text-anchor="middle" font-family="Arial, sans-serif" font-size="13" fill="#4e5b68">Winner-perspective ΔE_m in minutes (descriptive; not a causal estimate)</text>
</svg>
