<svg xmlns="http://www.w3.org/2000/svg" width="1120" height="636" viewBox="0 0 1120 636" role="img" aria-labelledby="title desc">
<title id="title">2022 World Cup: suspension exposure per foul</title>
<desc id="desc">Knockout-stage teams; primary rho = 2, mu = 1.25; all-tournament foul denominator.</desc>
<rect width="1120" height="636" fill="#fbfaf7"/>
<text x="36" y="44" font-family="Arial, sans-serif" font-size="24" font-weight="700" fill="#162434">2022 World Cup: suspension exposure per foul</text>
<text x="36" y="76" font-family="Arial, sans-serif" font-size="14" fill="#4e5b68">Knockout-stage teams; primary rho = 2, mu = 1.25; all-tournament foul denominator.</text>
<line x1="380.00" y1="98" x2="380.00" y2="564" stroke="#687683" stroke-width="1"/>
<text x="368" y="133" text-anchor="end" font-family="Arial, sans-serif" font-size="13" fill="#263747">England</text>
<rect x="380.00" y="120" width="1.00" height="17" rx="2" fill="#2f718c"/>
<text x="387.00" y="133" text-anchor="start" font-family="Arial, sans-serif" font-size="12" fill="#263747">0</text>
<text x="368" y="161" text-anchor="end" font-family="Arial, sans-serif" font-size="13" fill="#263747">Morocco</text>
<rect x="380.00" y="148" width="149.76" height="17" rx="2" fill="#2f718c"/>
<text x="536.76" y="161" text-anchor="start" font-family="Arial, sans-serif" font-size="12" fill="#263747">4.803</text>
<text x="368" y="189" text-anchor="end" font-family="Arial, sans-serif" font-size="13" fill="#263747">Argentina</text>
<rect x="380.00" y="176" width="153.53" height="17" rx="2" fill="#2f718c"/>
<text x="540.53" y="189" text-anchor="start" font-family="Arial, sans-serif" font-size="12" fill="#263747">4.924</text>
<text x="368" y="217" text-anchor="end" font-family="Arial, sans-serif" font-size="13" fill="#263747">Brazil</text>
<rect x="380.00" y="204" width="155.79" height="17" rx="2" fill="#2f718c"/>
<text x="542.79" y="217" text-anchor="start" font-family="Arial, sans-serif" font-size="12" fill="#263747">4.996</text>
<text x="368" y="245" text-anchor="end" font-family="Arial, sans-serif" font-size="13" fill="#263747">Netherlands</text>
<rect x="380.00" y="232" width="163.60" height="17" rx="2" fill="#2f718c"/>
<text x="550.60" y="245" text-anchor="start" font-family="Arial, sans-serif" font-size="12" fill="#263747">5.247</text>
<text x="368" y="273" text-anchor="end" font-family="Arial, sans-serif" font-size="13" fill="#263747">Spain</text>
<rect x="380.00" y="260" width="197.67" height="17" rx="2" fill="#2f718c"/>
<text x="584.67" y="273" text-anchor="start" font-family="Arial, sans-serif" font-size="12" fill="#263747">6.339</text>
<text x="368" y="301" text-anchor="end" font-family="Arial, sans-serif" font-size="13" fill="#263747">France</text>
<rect x="380.00" y="288" width="200.81" height="17" rx="2" fill="#2f718c"/>
<text x="587.81" y="301" text-anchor="start" font-family="Arial, sans-serif" font-size="12" fill="#263747">6.44</text>
<text x="368" y="329" text-anchor="end" font-family="Arial, sans-serif" font-size="13" fill="#263747">Croatia</text>
<rect x="380.00" y="316" width="245.54" height="17" rx="2" fill="#2f718c"/>
<text x="632.54" y="329" text-anchor="start" font-family="Arial, sans-serif" font-size="12" fill="#263747">7.874</text>
<text x="368" y="357" text-anchor="end" font-family="Arial, sans-serif" font-size="13" fill="#263747">Japan</text>
<rect x="380.00" y="344" width="316.29" height="17" rx="2" fill="#2f718c"/>
<text x="703.29" y="357" text-anchor="start" font-family="Arial, sans-serif" font-size="12" fill="#263747">10.143</text>
<text x="368" y="385" text-anchor="end" font-family="Arial, sans-serif" font-size="13" fill="#263747">Portugal</text>
<rect x="380.00" y="372" width="395.11" height="17" rx="2" fill="#2f718c"/>
<text x="782.11" y="385" text-anchor="start" font-family="Arial, sans-serif" font-size="12" fill="#263747">12.671</text>
<text x="368" y="413" text-anchor="end" font-family="Arial, sans-serif" font-size="13" fill="#263747">Korea Republic</text>
<rect x="380.00" y="400" width="422.37" height="17" rx="2" fill="#2f718c"/>
<text x="809.37" y="413" text-anchor="start" font-family="Arial, sans-serif" font-size="12" fill="#263747">13.545</text>
<text x="368" y="441" text-anchor="end" font-family="Arial, sans-serif" font-size="13" fill="#263747">Australia</text>
<rect x="380.00" y="428" width="507.20" height="17" rx="2" fill="#2f718c"/>
<text x="894.20" y="441" text-anchor="start" font-family="Arial, sans-serif" font-size="12" fill="#263747">16.266</text>
<text x="368" y="469" text-anchor="end" font-family="Arial, sans-serif" font-size="13" fill="#263747">Senegal</text>
<rect x="380.00" y="456" width="515.21" height="17" rx="2" fill="#2f718c"/>
<text x="902.21" y="469" text-anchor="start" font-family="Arial, sans-serif" font-size="12" fill="#263747">16.523</text>
<text x="368" y="497" text-anchor="end" font-family="Arial, sans-serif" font-size="13" fill="#263747">United States</text>
<rect x="380.00" y="484" width="523.85" height="17" rx="2" fill="#2f718c"/>
<text x="910.85" y="497" text-anchor="start" font-family="Arial, sans-serif" font-size="12" fill="#263747">16.8</text>
<text x="368" y="525" text-anchor="end" font-family="Arial, sans-serif" font-size="13" fill="#263747">Switzerland</text>
<rect x="380.00" y="512" width="561.04" height="17" rx="2" fill="#2f718c"/>
<text x="948.04" y="525" text-anchor="start" font-family="Arial, sans-serif" font-size="12" fill="#263747">17.993</text>
<text x="368" y="553" text-anchor="end" font-family="Arial, sans-serif" font-size="13" fill="#263747">Poland</text>
<rect x="380.00" y="540" width="570.18" height="17" rx="2" fill="#2f718c"/>
<text x="957.18" y="553" text-anchor="start" font-family="Arial, sans-serif" font-size="12" fill="#263747">18.286</text>
<text x="560" y="606" text-anchor="middle" font-family="Arial, sans-serif" font-size="13" fill="#4e5b68">Suspension-exposure minutes per foul (descriptive; not a causal estimate)</text>
</svg>
