<svg xmlns="http://www.w3.org/2000/svg" width="1120" height="972" viewBox="0 0 1120 972" role="img" aria-labelledby="title desc">
<title id="title">2026 World Cup: winner-perspective knockout ΔE_m′</title>
<desc id="desc">Winner E_m/fouls minus opponent E_m/fouls; sorted high to low; rho = 2.</desc>
<rect width="1120" height="972" fill="#fbfaf7"/>
<text x="36" y="44" font-family="Arial, sans-serif" font-size="24" font-weight="700" fill="#162434">2026 World Cup: winner-perspective knockout ΔE_m′</text>
<text x="36" y="76" font-family="Arial, sans-serif" font-size="14" fill="#4e5b68">Winner E_m/fouls minus opponent E_m/fouls; sorted high to low; rho = 2.</text>
<line x1="705.00" y1="98" x2="705.00" y2="900" stroke="#687683" stroke-width="1"/>
<text x="368" y="133" text-anchor="end" font-family="Arial, sans-serif" font-size="13" fill="#263747">M92 England vs Mexico</text>
<rect x="705.00" y="120" width="275.42" height="17" rx="2" fill="#2f718c"/>
<text x="987.42" y="133" text-anchor="start" font-family="Arial, sans-serif" font-size="12" fill="#263747">36.071</text>
<text x="368" y="161" text-anchor="end" font-family="Arial, sans-serif" font-size="13" fill="#263747">M76 Brazil vs Japan</text>
<rect x="705.00" y="148" width="172.09" height="17" rx="2" fill="#2f718c"/>
<text x="884.09" y="161" text-anchor="start" font-family="Arial, sans-serif" font-size="12" fill="#263747">22.538</text>
<text x="368" y="189" text-anchor="end" font-family="Arial, sans-serif" font-size="13" fill="#263747">M83 Portugal vs Croatia</text>
<rect x="705.00" y="176" width="78.26" height="17" rx="2" fill="#2f718c"/>
<text x="790.26" y="189" text-anchor="start" font-family="Arial, sans-serif" font-size="12" fill="#263747">10.25</text>
<text x="368" y="217" text-anchor="end" font-family="Arial, sans-serif" font-size="13" fill="#263747">M89 France vs Paraguay</text>
<rect x="705.00" y="204" width="73.58" height="17" rx="2" fill="#2f718c"/>
<text x="785.58" y="217" text-anchor="start" font-family="Arial, sans-serif" font-size="12" fill="#263747">9.636</text>
<text x="368" y="245" text-anchor="end" font-family="Arial, sans-serif" font-size="13" fill="#263747">M90 Morocco vs Canada</text>
<rect x="705.00" y="232" width="69.13" height="17" rx="2" fill="#2f718c"/>
<text x="781.13" y="245" text-anchor="start" font-family="Arial, sans-serif" font-size="12" fill="#263747">9.054</text>
<text x="368" y="273" text-anchor="end" font-family="Arial, sans-serif" font-size="13" fill="#263747">M81 USA vs Bosnia and Herzegovina</text>
<rect x="705.00" y="260" width="68.38" height="17" rx="2" fill="#2f718c"/>
<text x="780.38" y="273" text-anchor="start" font-family="Arial, sans-serif" font-size="12" fill="#263747">8.956</text>
<text x="368" y="301" text-anchor="end" font-family="Arial, sans-serif" font-size="13" fill="#263747">M78 Norway vs Côte d&#x27;Ivoire</text>
<rect x="705.00" y="288" width="56.72" height="17" rx="2" fill="#2f718c"/>
<text x="768.72" y="301" text-anchor="start" font-family="Arial, sans-serif" font-size="12" fill="#263747">7.429</text>
<text x="368" y="329" text-anchor="end" font-family="Arial, sans-serif" font-size="13" fill="#263747">M75 Morocco vs Netherlands</text>
<rect x="705.00" y="316" width="38.18" height="17" rx="2" fill="#2f718c"/>
<text x="750.18" y="329" text-anchor="start" font-family="Arial, sans-serif" font-size="12" fill="#263747">5</text>
<text x="368" y="357" text-anchor="end" font-family="Arial, sans-serif" font-size="13" fill="#263747">M73 Canada vs South Africa</text>
<rect x="705.00" y="344" width="34.84" height="17" rx="2" fill="#2f718c"/>
<text x="746.84" y="357" text-anchor="start" font-family="Arial, sans-serif" font-size="12" fill="#263747">4.562</text>
<text x="368" y="385" text-anchor="end" font-family="Arial, sans-serif" font-size="13" fill="#263747">M74 Paraguay vs Germany</text>
<rect x="705.00" y="372" width="30.12" height="17" rx="2" fill="#2f718c"/>
<text x="742.12" y="385" text-anchor="start" font-family="Arial, sans-serif" font-size="12" fill="#263747">3.944</text>
<text x="368" y="413" text-anchor="end" font-family="Arial, sans-serif" font-size="13" fill="#263747">M98 Spain vs Belgium</text>
<rect x="705.00" y="400" width="28.45" height="17" rx="2" fill="#2f718c"/>
<text x="740.45" y="413" text-anchor="start" font-family="Arial, sans-serif" font-size="12" fill="#263747">3.726</text>
<text x="368" y="441" text-anchor="end" font-family="Arial, sans-serif" font-size="13" fill="#263747">M96 Switzerland vs Colombia</text>
<rect x="705.00" y="428" width="19.68" height="17" rx="2" fill="#2f718c"/>
<text x="731.68" y="441" text-anchor="start" font-family="Arial, sans-serif" font-size="12" fill="#263747">2.578</text>
<text x="368" y="469" text-anchor="end" font-family="Arial, sans-serif" font-size="13" fill="#263747">M80 England vs Congo DR</text>
<rect x="705.00" y="456" width="15.02" height="17" rx="2" fill="#2f718c"/>
<text x="727.02" y="469" text-anchor="start" font-family="Arial, sans-serif" font-size="12" fill="#263747">1.967</text>
<text x="368" y="497" text-anchor="end" font-family="Arial, sans-serif" font-size="13" fill="#263747">M88 Egypt vs Australia</text>
<rect x="705.00" y="484" width="12.00" height="17" rx="2" fill="#2f718c"/>
<text x="724.00" y="497" text-anchor="start" font-family="Arial, sans-serif" font-size="12" fill="#263747">1.571</text>
<text x="368" y="525" text-anchor="end" font-family="Arial, sans-serif" font-size="13" fill="#263747">M77 France vs Sweden</text>
<rect x="705.00" y="512" width="1.00" height="17" rx="2" fill="#2f718c"/>
<text x="712.00" y="525" text-anchor="start" font-family="Arial, sans-serif" font-size="12" fill="#263747">0</text>
<text x="368" y="553" text-anchor="end" font-family="Arial, sans-serif" font-size="13" fill="#263747">M99 England vs Norway</text>
<rect x="700.42" y="540" width="4.58" height="17" rx="2" fill="#b65b4f"/>
<text x="693.42" y="553" text-anchor="end" font-family="Arial, sans-serif" font-size="12" fill="#263747">-0.6</text>
<text x="368" y="581" text-anchor="end" font-family="Arial, sans-serif" font-size="13" fill="#263747">M91 Norway vs Brazil</text>
<rect x="698.46" y="568" width="6.54" height="17" rx="2" fill="#b65b4f"/>
<text x="691.46" y="581" text-anchor="end" font-family="Arial, sans-serif" font-size="12" fill="#263747">-0.857</text>
<text x="368" y="609" text-anchor="end" font-family="Arial, sans-serif" font-size="13" fill="#263747">M84 Spain vs Austria</text>
<rect x="697.87" y="596" width="7.13" height="17" rx="2" fill="#b65b4f"/>
<text x="690.87" y="609" text-anchor="end" font-family="Arial, sans-serif" font-size="12" fill="#263747">-0.933</text>
<text x="368" y="637" text-anchor="end" font-family="Arial, sans-serif" font-size="13" fill="#263747">M93 Spain vs Portugal</text>
<rect x="692.01" y="624" width="12.99" height="17" rx="2" fill="#b65b4f"/>
<text x="685.01" y="637" text-anchor="end" font-family="Arial, sans-serif" font-size="12" fill="#263747">-1.701</text>
<text x="368" y="665" text-anchor="end" font-family="Arial, sans-serif" font-size="13" fill="#263747">M95 Argentina vs Egypt</text>
<rect x="690.42" y="652" width="14.58" height="17" rx="2" fill="#b65b4f"/>
<text x="683.42" y="665" text-anchor="end" font-family="Arial, sans-serif" font-size="12" fill="#263747">-1.909</text>
<text x="368" y="693" text-anchor="end" font-family="Arial, sans-serif" font-size="13" fill="#263747">M82 Belgium vs Senegal</text>
<rect x="687.24" y="680" width="17.76" height="17" rx="2" fill="#b65b4f"/>
<text x="680.24" y="693" text-anchor="end" font-family="Arial, sans-serif" font-size="12" fill="#263747">-2.326</text>
<text x="368" y="721" text-anchor="end" font-family="Arial, sans-serif" font-size="13" fill="#263747">M97 France vs Morocco</text>
<rect x="685.03" y="708" width="19.97" height="17" rx="2" fill="#b65b4f"/>
<text x="678.03" y="721" text-anchor="end" font-family="Arial, sans-serif" font-size="12" fill="#263747">-2.615</text>
<text x="368" y="749" text-anchor="end" font-family="Arial, sans-serif" font-size="13" fill="#263747">M87 Colombia vs Ghana</text>
<rect x="684.17" y="736" width="20.83" height="17" rx="2" fill="#b65b4f"/>
<text x="677.17" y="749" text-anchor="end" font-family="Arial, sans-serif" font-size="12" fill="#263747">-2.729</text>
<text x="368" y="777" text-anchor="end" font-family="Arial, sans-serif" font-size="13" fill="#263747">M86 Argentina vs Cabo Verde</text>
<rect x="674.65" y="764" width="30.35" height="17" rx="2" fill="#b65b4f"/>
<text x="667.65" y="777" text-anchor="end" font-family="Arial, sans-serif" font-size="12" fill="#263747">-3.974</text>
<text x="368" y="805" text-anchor="end" font-family="Arial, sans-serif" font-size="13" fill="#263747">M79 Mexico vs Ecuador</text>
<rect x="668.46" y="792" width="36.54" height="17" rx="2" fill="#b65b4f"/>
<text x="661.46" y="805" text-anchor="end" font-family="Arial, sans-serif" font-size="12" fill="#263747">-4.786</text>
<text x="368" y="833" text-anchor="end" font-family="Arial, sans-serif" font-size="13" fill="#263747">M100 Argentina vs Switzerland</text>
<rect x="661.67" y="820" width="43.33" height="17" rx="2" fill="#b65b4f"/>
<text x="654.67" y="833" text-anchor="end" font-family="Arial, sans-serif" font-size="12" fill="#263747">-5.675</text>
<text x="368" y="861" text-anchor="end" font-family="Arial, sans-serif" font-size="13" fill="#263747">M85 Switzerland vs Algeria</text>
<rect x="650.28" y="848" width="54.72" height="17" rx="2" fill="#b65b4f"/>
<text x="643.28" y="861" text-anchor="end" font-family="Arial, sans-serif" font-size="12" fill="#263747">-7.167</text>
<text x="368" y="889" text-anchor="end" font-family="Arial, sans-serif" font-size="13" fill="#263747">M94 Belgium vs USA</text>
<rect x="645.30" y="876" width="59.70" height="17" rx="2" fill="#b65b4f"/>
<text x="638.30" y="889" text-anchor="end" font-family="Arial, sans-serif" font-size="12" fill="#263747">-7.818</text>
<text x="560" y="942" text-anchor="middle" font-family="Arial, sans-serif" font-size="13" fill="#4e5b68">Winner-perspective ΔE_m′ in minutes per foul (descriptive; not a causal estimate)</text>
</svg>
