<svg xmlns="http://www.w3.org/2000/svg" width="1120" height="972" viewBox="0 0 1120 972" role="img" aria-labelledby="title desc">
<title id="title">2026 World Cup: winner-perspective knockout ΔE_m</title>
<desc id="desc">Winner minus opponent; sorted high to low; primary dismissal multiplier rho = 2.</desc>
<rect width="1120" height="972" fill="#fbfaf7"/>
<text x="36" y="44" font-family="Arial, sans-serif" font-size="24" font-weight="700" fill="#162434">2026 World Cup: winner-perspective knockout ΔE_m</text>
<text x="36" y="76" font-family="Arial, sans-serif" font-size="14" fill="#4e5b68">Winner minus opponent; sorted high to low; primary dismissal multiplier rho = 2.</text>
<line x1="705.00" y1="98" x2="705.00" y2="900" stroke="#687683" stroke-width="1"/>
<text x="368" y="133" text-anchor="end" font-family="Arial, sans-serif" font-size="13" fill="#263747">M92 England vs Mexico</text>
<rect x="705.00" y="120" width="275.42" height="17" rx="2" fill="#2f718c"/>
<text x="987.42" y="133" text-anchor="start" font-family="Arial, sans-serif" font-size="12" fill="#263747">234</text>
<text x="368" y="161" text-anchor="end" font-family="Arial, sans-serif" font-size="13" fill="#263747">M89 France vs Paraguay</text>
<rect x="705.00" y="148" width="124.76" height="17" rx="2" fill="#2f718c"/>
<text x="836.76" y="161" text-anchor="start" font-family="Arial, sans-serif" font-size="12" fill="#263747">106</text>
<text x="368" y="189" text-anchor="end" font-family="Arial, sans-serif" font-size="13" fill="#263747">M75 Morocco vs Netherlands</text>
<rect x="705.00" y="176" width="88.28" height="17" rx="2" fill="#2f718c"/>
<text x="800.28" y="189" text-anchor="start" font-family="Arial, sans-serif" font-size="12" fill="#263747">75</text>
<text x="368" y="217" text-anchor="end" font-family="Arial, sans-serif" font-size="13" fill="#263747">M73 Canada vs South Africa</text>
<rect x="705.00" y="204" width="85.92" height="17" rx="2" fill="#2f718c"/>
<text x="797.92" y="217" text-anchor="start" font-family="Arial, sans-serif" font-size="12" fill="#263747">73</text>
<text x="368" y="245" text-anchor="end" font-family="Arial, sans-serif" font-size="13" fill="#263747">M96 Switzerland vs Colombia</text>
<rect x="705.00" y="232" width="71.80" height="17" rx="2" fill="#2f718c"/>
<text x="783.80" y="245" text-anchor="start" font-family="Arial, sans-serif" font-size="12" fill="#263747">61</text>
<text x="368" y="273" text-anchor="end" font-family="Arial, sans-serif" font-size="13" fill="#263747">M81 USA vs Bosnia and Herzegovina</text>
<rect x="705.00" y="260" width="62.38" height="17" rx="2" fill="#2f718c"/>
<text x="774.38" y="273" text-anchor="start" font-family="Arial, sans-serif" font-size="12" fill="#263747">53</text>
<text x="368" y="301" text-anchor="end" font-family="Arial, sans-serif" font-size="13" fill="#263747">M78 Norway vs Côte d&#x27;Ivoire</text>
<rect x="705.00" y="288" width="61.21" height="17" rx="2" fill="#2f718c"/>
<text x="773.21" y="301" text-anchor="start" font-family="Arial, sans-serif" font-size="12" fill="#263747">52</text>
<text x="368" y="329" text-anchor="end" font-family="Arial, sans-serif" font-size="13" fill="#263747">M98 Spain vs Belgium</text>
<rect x="705.00" y="316" width="51.79" height="17" rx="2" fill="#2f718c"/>
<text x="763.79" y="329" text-anchor="start" font-family="Arial, sans-serif" font-size="12" fill="#263747">44</text>
<text x="368" y="357" text-anchor="end" font-family="Arial, sans-serif" font-size="13" fill="#263747">M90 Morocco vs Canada</text>
<rect x="705.00" y="344" width="50.61" height="17" rx="2" fill="#2f718c"/>
<text x="762.61" y="357" text-anchor="start" font-family="Arial, sans-serif" font-size="12" fill="#263747">43</text>
<text x="368" y="385" text-anchor="end" font-family="Arial, sans-serif" font-size="13" fill="#263747">M74 Paraguay vs Germany</text>
<rect x="705.00" y="372" width="45.90" height="17" rx="2" fill="#2f718c"/>
<text x="757.90" y="385" text-anchor="start" font-family="Arial, sans-serif" font-size="12" fill="#263747">39</text>
<text x="368" y="413" text-anchor="end" font-family="Arial, sans-serif" font-size="13" fill="#263747">M83 Portugal vs Croatia</text>
<rect x="705.00" y="400" width="36.49" height="17" rx="2" fill="#2f718c"/>
<text x="748.49" y="413" text-anchor="start" font-family="Arial, sans-serif" font-size="12" fill="#263747">31</text>
<text x="368" y="441" text-anchor="end" font-family="Arial, sans-serif" font-size="13" fill="#263747">M88 Egypt vs Australia</text>
<rect x="705.00" y="428" width="25.89" height="17" rx="2" fill="#2f718c"/>
<text x="737.89" y="441" text-anchor="start" font-family="Arial, sans-serif" font-size="12" fill="#263747">22</text>
<text x="368" y="469" text-anchor="end" font-family="Arial, sans-serif" font-size="13" fill="#263747">M80 England vs Congo DR</text>
<rect x="705.00" y="456" width="9.42" height="17" rx="2" fill="#2f718c"/>
<text x="721.42" y="469" text-anchor="start" font-family="Arial, sans-serif" font-size="12" fill="#263747">8</text>
<text x="368" y="497" text-anchor="end" font-family="Arial, sans-serif" font-size="13" fill="#263747">M82 Belgium vs Senegal</text>
<rect x="705.00" y="484" width="3.53" height="17" rx="2" fill="#2f718c"/>
<text x="715.53" y="497" text-anchor="start" font-family="Arial, sans-serif" font-size="12" fill="#263747">3</text>
<text x="368" y="525" text-anchor="end" font-family="Arial, sans-serif" font-size="13" fill="#263747">M87 Colombia vs Ghana</text>
<rect x="705.00" y="512" width="3.53" height="17" rx="2" fill="#2f718c"/>
<text x="715.53" y="525" text-anchor="start" font-family="Arial, sans-serif" font-size="12" fill="#263747">3</text>
<text x="368" y="553" text-anchor="end" font-family="Arial, sans-serif" font-size="13" fill="#263747">M77 France vs Sweden</text>
<rect x="705.00" y="540" width="1.00" height="17" rx="2" fill="#2f718c"/>
<text x="712.00" y="553" text-anchor="start" font-family="Arial, sans-serif" font-size="12" fill="#263747">0</text>
<text x="368" y="581" text-anchor="end" font-family="Arial, sans-serif" font-size="13" fill="#263747">M91 Norway vs Brazil</text>
<rect x="697.94" y="568" width="7.06" height="17" rx="2" fill="#b65b4f"/>
<text x="690.94" y="581" text-anchor="end" font-family="Arial, sans-serif" font-size="12" fill="#263747">-6</text>
<text x="368" y="609" text-anchor="end" font-family="Arial, sans-serif" font-size="13" fill="#263747">M99 England vs Norway</text>
<rect x="697.94" y="596" width="7.06" height="17" rx="2" fill="#b65b4f"/>
<text x="690.94" y="609" text-anchor="end" font-family="Arial, sans-serif" font-size="12" fill="#263747">-6</text>
<text x="368" y="637" text-anchor="end" font-family="Arial, sans-serif" font-size="13" fill="#263747">M84 Spain vs Austria</text>
<rect x="688.52" y="624" width="16.48" height="17" rx="2" fill="#b65b4f"/>
<text x="681.52" y="637" text-anchor="end" font-family="Arial, sans-serif" font-size="12" fill="#263747">-14</text>
<text x="368" y="665" text-anchor="end" font-family="Arial, sans-serif" font-size="13" fill="#263747">M93 Spain vs Portugal</text>
<rect x="687.34" y="652" width="17.66" height="17" rx="2" fill="#b65b4f"/>
<text x="680.34" y="665" text-anchor="end" font-family="Arial, sans-serif" font-size="12" fill="#263747">-15</text>
<text x="368" y="693" text-anchor="end" font-family="Arial, sans-serif" font-size="13" fill="#263747">M95 Argentina vs Egypt</text>
<rect x="680.28" y="680" width="24.72" height="17" rx="2" fill="#b65b4f"/>
<text x="673.28" y="693" text-anchor="end" font-family="Arial, sans-serif" font-size="12" fill="#263747">-21</text>
<text x="368" y="721" text-anchor="end" font-family="Arial, sans-serif" font-size="13" fill="#263747">M76 Brazil vs Japan</text>
<rect x="679.11" y="708" width="25.89" height="17" rx="2" fill="#b65b4f"/>
<text x="672.11" y="721" text-anchor="end" font-family="Arial, sans-serif" font-size="12" fill="#263747">-22</text>
<text x="368" y="749" text-anchor="end" font-family="Arial, sans-serif" font-size="13" fill="#263747">M97 France vs Morocco</text>
<rect x="664.98" y="736" width="40.02" height="17" rx="2" fill="#b65b4f"/>
<text x="657.98" y="749" text-anchor="end" font-family="Arial, sans-serif" font-size="12" fill="#263747">-34</text>
<text x="368" y="777" text-anchor="end" font-family="Arial, sans-serif" font-size="13" fill="#263747">M86 Argentina vs Cabo Verde</text>
<rect x="649.68" y="764" width="55.32" height="17" rx="2" fill="#b65b4f"/>
<text x="642.68" y="777" text-anchor="end" font-family="Arial, sans-serif" font-size="12" fill="#263747">-47</text>
<text x="368" y="805" text-anchor="end" font-family="Arial, sans-serif" font-size="13" fill="#263747">M79 Mexico vs Ecuador</text>
<rect x="626.14" y="792" width="78.86" height="17" rx="2" fill="#b65b4f"/>
<text x="619.14" y="805" text-anchor="end" font-family="Arial, sans-serif" font-size="12" fill="#263747">-67</text>
<text x="368" y="833" text-anchor="end" font-family="Arial, sans-serif" font-size="13" fill="#263747">M85 Switzerland vs Algeria</text>
<rect x="603.78" y="820" width="101.22" height="17" rx="2" fill="#b65b4f"/>
<text x="596.78" y="833" text-anchor="end" font-family="Arial, sans-serif" font-size="12" fill="#263747">-86</text>
<text x="368" y="861" text-anchor="end" font-family="Arial, sans-serif" font-size="13" fill="#263747">M94 Belgium vs USA</text>
<rect x="603.78" y="848" width="101.22" height="17" rx="2" fill="#b65b4f"/>
<text x="596.78" y="861" text-anchor="end" font-family="Arial, sans-serif" font-size="12" fill="#263747">-86</text>
<text x="368" y="889" text-anchor="end" font-family="Arial, sans-serif" font-size="13" fill="#263747">M100 Argentina vs Switzerland</text>
<rect x="562.58" y="876" width="142.42" height="17" rx="2" fill="#b65b4f"/>
<text x="555.58" y="889" text-anchor="end" font-family="Arial, sans-serif" font-size="12" fill="#263747">-121</text>
<text x="560" y="942" text-anchor="middle" font-family="Arial, sans-serif" font-size="13" fill="#4e5b68">Winner-perspective ΔE_m in minutes (descriptive; not a causal estimate)</text>
</svg>
