<svg xmlns="http://www.w3.org/2000/svg" width="1120" height="608" viewBox="0 0 1120 608" role="img" aria-labelledby="title desc">
<title id="title">2018 World Cup: winner-perspective knockout ΔE_m′</title>
<desc id="desc">Winner E_m/fouls minus opponent E_m/fouls; sorted high to low; rho = 2.</desc>
<rect width="1120" height="608" fill="#fbfaf7"/>
<text x="36" y="44" font-family="Arial, sans-serif" font-size="24" font-weight="700" fill="#162434">2018 World Cup: winner-perspective knockout ΔE_m′</text>
<text x="36" y="76" font-family="Arial, sans-serif" font-size="14" fill="#4e5b68">Winner E_m/fouls minus opponent E_m/fouls; sorted high to low; rho = 2.</text>
<line x1="705.00" y1="98" x2="705.00" y2="536" stroke="#687683" stroke-width="1"/>
<text x="368" y="133" text-anchor="end" font-family="Arial, sans-serif" font-size="13" fill="#263747">M59 Croatia vs Russia</text>
<rect x="705.00" y="120" width="191.67" height="17" rx="2" fill="#2f718c"/>
<text x="903.67" y="133" text-anchor="start" font-family="Arial, sans-serif" font-size="12" fill="#263747">10.591</text>
<text x="368" y="161" text-anchor="end" font-family="Arial, sans-serif" font-size="13" fill="#263747">M64 France vs Croatia</text>
<rect x="705.00" y="148" width="156.11" height="17" rx="2" fill="#2f718c"/>
<text x="868.11" y="161" text-anchor="start" font-family="Arial, sans-serif" font-size="12" fill="#263747">8.626</text>
<text x="368" y="189" text-anchor="end" font-family="Arial, sans-serif" font-size="13" fill="#263747">M53 Brazil vs Mexico</text>
<rect x="705.00" y="176" width="147.79" height="17" rx="2" fill="#2f718c"/>
<text x="859.79" y="189" text-anchor="start" font-family="Arial, sans-serif" font-size="12" fill="#263747">8.167</text>
<text x="368" y="217" text-anchor="end" font-family="Arial, sans-serif" font-size="13" fill="#263747">M58 Belgium vs Brazil</text>
<rect x="705.00" y="204" width="60.59" height="17" rx="2" fill="#2f718c"/>
<text x="772.59" y="217" text-anchor="start" font-family="Arial, sans-serif" font-size="12" fill="#263747">3.348</text>
<text x="368" y="245" text-anchor="end" font-family="Arial, sans-serif" font-size="13" fill="#263747">M57 France vs Uruguay</text>
<rect x="705.00" y="232" width="17.81" height="17" rx="2" fill="#2f718c"/>
<text x="729.81" y="245" text-anchor="start" font-family="Arial, sans-serif" font-size="12" fill="#263747">0.984</text>
<text x="368" y="273" text-anchor="end" font-family="Arial, sans-serif" font-size="13" fill="#263747">M55 Sweden vs Switzerland</text>
<rect x="705.00" y="260" width="9.74" height="17" rx="2" fill="#2f718c"/>
<text x="721.74" y="273" text-anchor="start" font-family="Arial, sans-serif" font-size="12" fill="#263747">0.538</text>
<text x="368" y="301" text-anchor="end" font-family="Arial, sans-serif" font-size="13" fill="#263747">M60 England vs Sweden</text>
<rect x="705.00" y="288" width="3.36" height="17" rx="2" fill="#2f718c"/>
<text x="715.36" y="301" text-anchor="start" font-family="Arial, sans-serif" font-size="12" fill="#263747">0.186</text>
<text x="368" y="329" text-anchor="end" font-family="Arial, sans-serif" font-size="13" fill="#263747">M49 Uruguay vs Portugal</text>
<rect x="700.82" y="316" width="4.18" height="17" rx="2" fill="#b65b4f"/>
<text x="693.82" y="329" text-anchor="end" font-family="Arial, sans-serif" font-size="12" fill="#263747">-0.231</text>
<text x="368" y="357" text-anchor="end" font-family="Arial, sans-serif" font-size="13" fill="#263747">M52 Croatia vs Denmark</text>
<rect x="698.33" y="344" width="6.67" height="17" rx="2" fill="#b65b4f"/>
<text x="691.33" y="357" text-anchor="end" font-family="Arial, sans-serif" font-size="12" fill="#263747">-0.368</text>
<text x="368" y="385" text-anchor="end" font-family="Arial, sans-serif" font-size="13" fill="#263747">M62 Croatia vs England</text>
<rect x="696.63" y="372" width="8.37" height="17" rx="2" fill="#b65b4f"/>
<text x="689.63" y="385" text-anchor="end" font-family="Arial, sans-serif" font-size="12" fill="#263747">-0.463</text>
<text x="368" y="413" text-anchor="end" font-family="Arial, sans-serif" font-size="13" fill="#263747">M61 France vs Belgium</text>
<rect x="675.97" y="400" width="29.03" height="17" rx="2" fill="#b65b4f"/>
<text x="668.97" y="413" text-anchor="end" font-family="Arial, sans-serif" font-size="12" fill="#263747">-1.604</text>
<text x="368" y="441" text-anchor="end" font-family="Arial, sans-serif" font-size="13" fill="#263747">M56 England vs Colombia</text>
<rect x="603.13" y="428" width="101.87" height="17" rx="2" fill="#b65b4f"/>
<text x="596.13" y="441" text-anchor="end" font-family="Arial, sans-serif" font-size="12" fill="#263747">-5.629</text>
<text x="368" y="469" text-anchor="end" font-family="Arial, sans-serif" font-size="13" fill="#263747">M54 Belgium vs Japan</text>
<rect x="592.39" y="456" width="112.61" height="17" rx="2" fill="#b65b4f"/>
<text x="585.39" y="469" text-anchor="end" font-family="Arial, sans-serif" font-size="12" fill="#263747">-6.222</text>
<text x="368" y="497" text-anchor="end" font-family="Arial, sans-serif" font-size="13" fill="#263747">M51 Russia vs Spain</text>
<rect x="521.55" y="484" width="183.45" height="17" rx="2" fill="#b65b4f"/>
<text x="514.55" y="497" text-anchor="end" font-family="Arial, sans-serif" font-size="12" fill="#263747">-10.137</text>
<text x="368" y="525" text-anchor="end" font-family="Arial, sans-serif" font-size="13" fill="#263747">M50 France vs Argentina</text>
<rect x="429.58" y="512" width="275.42" height="17" rx="2" fill="#b65b4f"/>
<text x="422.58" y="525" text-anchor="end" font-family="Arial, sans-serif" font-size="12" fill="#263747">-15.219</text>
<text x="560" y="578" text-anchor="middle" font-family="Arial, sans-serif" font-size="13" fill="#4e5b68">Winner-perspective ΔE_m′ in minutes per foul (descriptive; not a causal estimate)</text>
</svg>
