<svg xmlns="http://www.w3.org/2000/svg" width="1120" height="636" viewBox="0 0 1120 636" role="img" aria-labelledby="title desc">
<title id="title">2018 World Cup: suspension exposure per foul</title>
<desc id="desc">Knockout-stage teams; primary rho = 2, mu = 1.25; all-tournament foul denominator.</desc>
<rect width="1120" height="636" fill="#fbfaf7"/>
<text x="36" y="44" font-family="Arial, sans-serif" font-size="24" font-weight="700" fill="#162434">2018 World Cup: suspension exposure per foul</text>
<text x="36" y="76" font-family="Arial, sans-serif" font-size="14" fill="#4e5b68">Knockout-stage teams; primary rho = 2, mu = 1.25; all-tournament foul denominator.</text>
<line x1="380.00" y1="98" x2="380.00" y2="564" stroke="#687683" stroke-width="1"/>
<text x="368" y="133" text-anchor="end" font-family="Arial, sans-serif" font-size="13" fill="#263747">Uruguay</text>
<rect x="380.00" y="120" width="22.70" height="17" rx="2" fill="#2f718c"/>
<text x="409.70" y="133" text-anchor="start" font-family="Arial, sans-serif" font-size="12" fill="#263747">0.792</text>
<text x="368" y="161" text-anchor="end" font-family="Arial, sans-serif" font-size="13" fill="#263747">Russia</text>
<rect x="380.00" y="148" width="171.23" height="17" rx="2" fill="#2f718c"/>
<text x="558.23" y="161" text-anchor="start" font-family="Arial, sans-serif" font-size="12" fill="#263747">5.971</text>
<text x="368" y="189" text-anchor="end" font-family="Arial, sans-serif" font-size="13" fill="#263747">England</text>
<rect x="380.00" y="176" width="182.21" height="17" rx="2" fill="#2f718c"/>
<text x="569.21" y="189" text-anchor="start" font-family="Arial, sans-serif" font-size="12" fill="#263747">6.354</text>
<text x="368" y="217" text-anchor="end" font-family="Arial, sans-serif" font-size="13" fill="#263747">Denmark</text>
<rect x="380.00" y="204" width="202.57" height="17" rx="2" fill="#2f718c"/>
<text x="589.57" y="217" text-anchor="start" font-family="Arial, sans-serif" font-size="12" fill="#263747">7.064</text>
<text x="368" y="245" text-anchor="end" font-family="Arial, sans-serif" font-size="13" fill="#263747">Belgium</text>
<rect x="380.00" y="232" width="233.59" height="17" rx="2" fill="#2f718c"/>
<text x="620.59" y="245" text-anchor="start" font-family="Arial, sans-serif" font-size="12" fill="#263747">8.146</text>
<text x="368" y="273" text-anchor="end" font-family="Arial, sans-serif" font-size="13" fill="#263747">France</text>
<rect x="380.00" y="260" width="235.70" height="17" rx="2" fill="#2f718c"/>
<text x="622.70" y="273" text-anchor="start" font-family="Arial, sans-serif" font-size="12" fill="#263747">8.22</text>
<text x="368" y="301" text-anchor="end" font-family="Arial, sans-serif" font-size="13" fill="#263747">Croatia</text>
<rect x="380.00" y="288" width="247.59" height="17" rx="2" fill="#2f718c"/>
<text x="634.59" y="301" text-anchor="start" font-family="Arial, sans-serif" font-size="12" fill="#263747">8.634</text>
<text x="368" y="329" text-anchor="end" font-family="Arial, sans-serif" font-size="13" fill="#263747">Spain</text>
<rect x="380.00" y="316" width="269.88" height="17" rx="2" fill="#2f718c"/>
<text x="656.88" y="329" text-anchor="start" font-family="Arial, sans-serif" font-size="12" fill="#263747">9.412</text>
<text x="368" y="357" text-anchor="end" font-family="Arial, sans-serif" font-size="13" fill="#263747">Sweden</text>
<rect x="380.00" y="344" width="321.77" height="17" rx="2" fill="#2f718c"/>
<text x="708.77" y="357" text-anchor="start" font-family="Arial, sans-serif" font-size="12" fill="#263747">11.221</text>
<text x="368" y="385" text-anchor="end" font-family="Arial, sans-serif" font-size="13" fill="#263747">Portugal</text>
<rect x="380.00" y="372" width="353.48" height="17" rx="2" fill="#2f718c"/>
<text x="740.48" y="385" text-anchor="start" font-family="Arial, sans-serif" font-size="12" fill="#263747">12.327</text>
<text x="368" y="413" text-anchor="end" font-family="Arial, sans-serif" font-size="13" fill="#263747">Switzerland</text>
<rect x="380.00" y="400" width="374.91" height="17" rx="2" fill="#2f718c"/>
<text x="761.91" y="413" text-anchor="start" font-family="Arial, sans-serif" font-size="12" fill="#263747">13.075</text>
<text x="368" y="441" text-anchor="end" font-family="Arial, sans-serif" font-size="13" fill="#263747">Brazil</text>
<rect x="380.00" y="428" width="387.68" height="17" rx="2" fill="#2f718c"/>
<text x="774.68" y="441" text-anchor="start" font-family="Arial, sans-serif" font-size="12" fill="#263747">13.52</text>
<text x="368" y="469" text-anchor="end" font-family="Arial, sans-serif" font-size="13" fill="#263747">Colombia</text>
<rect x="380.00" y="456" width="424.37" height="17" rx="2" fill="#2f718c"/>
<text x="811.37" y="469" text-anchor="start" font-family="Arial, sans-serif" font-size="12" fill="#263747">14.799</text>
<text x="368" y="497" text-anchor="end" font-family="Arial, sans-serif" font-size="13" fill="#263747">Mexico</text>
<rect x="380.00" y="484" width="481.01" height="17" rx="2" fill="#2f718c"/>
<text x="868.01" y="497" text-anchor="start" font-family="Arial, sans-serif" font-size="12" fill="#263747">16.775</text>
<text x="368" y="525" text-anchor="end" font-family="Arial, sans-serif" font-size="13" fill="#263747">Japan</text>
<rect x="380.00" y="512" width="498.02" height="17" rx="2" fill="#2f718c"/>
<text x="885.02" y="525" text-anchor="start" font-family="Arial, sans-serif" font-size="12" fill="#263747">17.368</text>
<text x="368" y="553" text-anchor="end" font-family="Arial, sans-serif" font-size="13" fill="#263747">Argentina</text>
<rect x="380.00" y="540" width="570.18" height="17" rx="2" fill="#2f718c"/>
<text x="957.18" y="553" text-anchor="start" font-family="Arial, sans-serif" font-size="12" fill="#263747">19.884</text>
<text x="560" y="606" text-anchor="middle" font-family="Arial, sans-serif" font-size="13" fill="#4e5b68">Suspension-exposure minutes per foul (descriptive; not a causal estimate)</text>
</svg>
