<svg xmlns="http://www.w3.org/2000/svg" width="1120" height="608" viewBox="0 0 1120 608" role="img" aria-labelledby="title desc">
<title id="title">2014 World Cup: winner-perspective knockout ΔE_m</title>
<desc id="desc">Winner minus opponent; sorted high to low; primary dismissal multiplier rho = 2.</desc>
<rect width="1120" height="608" fill="#fbfaf7"/>
<text x="36" y="44" font-family="Arial, sans-serif" font-size="24" font-weight="700" fill="#162434">2014 World Cup: winner-perspective knockout ΔE_m</text>
<text x="36" y="76" font-family="Arial, sans-serif" font-size="14" fill="#4e5b68">Winner minus opponent; sorted high to low; primary dismissal multiplier rho = 2.</text>
<line x1="705.00" y1="98" x2="705.00" y2="536" stroke="#687683" stroke-width="1"/>
<text x="368" y="133" text-anchor="end" font-family="Arial, sans-serif" font-size="13" fill="#263747">M52 Costa Rica vs Greece</text>
<rect x="705.00" y="120" width="275.42" height="17" rx="2" fill="#2f718c"/>
<text x="987.42" y="133" text-anchor="start" font-family="Arial, sans-serif" font-size="12" fill="#263747">284</text>
<text x="368" y="161" text-anchor="end" font-family="Arial, sans-serif" font-size="13" fill="#263747">M64 Germany vs Argentina</text>
<rect x="705.00" y="148" width="64.01" height="17" rx="2" fill="#2f718c"/>
<text x="776.01" y="161" text-anchor="start" font-family="Arial, sans-serif" font-size="12" fill="#263747">66</text>
<text x="368" y="189" text-anchor="end" font-family="Arial, sans-serif" font-size="13" fill="#263747">M58 Germany vs France</text>
<rect x="705.00" y="176" width="55.47" height="17" rx="2" fill="#2f718c"/>
<text x="767.47" y="189" text-anchor="start" font-family="Arial, sans-serif" font-size="12" fill="#263747">57.2</text>
<text x="368" y="217" text-anchor="end" font-family="Arial, sans-serif" font-size="13" fill="#263747">M53 France vs Nigeria</text>
<rect x="705.00" y="204" width="39.79" height="17" rx="2" fill="#2f718c"/>
<text x="751.79" y="217" text-anchor="start" font-family="Arial, sans-serif" font-size="12" fill="#263747">41.03</text>
<text x="368" y="245" text-anchor="end" font-family="Arial, sans-serif" font-size="13" fill="#263747">M57 Brazil vs Colombia</text>
<rect x="699.18" y="232" width="5.82" height="17" rx="2" fill="#b65b4f"/>
<text x="692.18" y="245" text-anchor="end" font-family="Arial, sans-serif" font-size="12" fill="#263747">-6</text>
<text x="368" y="273" text-anchor="end" font-family="Arial, sans-serif" font-size="13" fill="#263747">M62 Argentina vs Netherlands</text>
<rect x="684.63" y="260" width="20.37" height="17" rx="2" fill="#b65b4f"/>
<text x="677.63" y="273" text-anchor="end" font-family="Arial, sans-serif" font-size="12" fill="#263747">-21</text>
<text x="368" y="301" text-anchor="end" font-family="Arial, sans-serif" font-size="13" fill="#263747">M56 Belgium vs United States</text>
<rect x="681.72" y="288" width="23.28" height="17" rx="2" fill="#b65b4f"/>
<text x="674.72" y="301" text-anchor="end" font-family="Arial, sans-serif" font-size="12" fill="#263747">-24</text>
<text x="368" y="329" text-anchor="end" font-family="Arial, sans-serif" font-size="13" fill="#263747">M61 Germany vs Brazil</text>
<rect x="680.77" y="316" width="24.23" height="17" rx="2" fill="#b65b4f"/>
<text x="673.77" y="329" text-anchor="end" font-family="Arial, sans-serif" font-size="12" fill="#263747">-24.98</text>
<text x="368" y="357" text-anchor="end" font-family="Arial, sans-serif" font-size="13" fill="#263747">M49 Brazil vs Chile</text>
<rect x="672.03" y="344" width="32.97" height="17" rx="2" fill="#b65b4f"/>
<text x="665.03" y="357" text-anchor="end" font-family="Arial, sans-serif" font-size="12" fill="#263747">-34</text>
<text x="368" y="385" text-anchor="end" font-family="Arial, sans-serif" font-size="13" fill="#263747">M51 Netherlands vs Mexico</text>
<rect x="668.40" y="372" width="36.60" height="17" rx="2" fill="#b65b4f"/>
<text x="661.40" y="385" text-anchor="end" font-family="Arial, sans-serif" font-size="12" fill="#263747">-37.74</text>
<text x="368" y="413" text-anchor="end" font-family="Arial, sans-serif" font-size="13" fill="#263747">M50 Colombia vs Uruguay</text>
<rect x="666.06" y="400" width="38.94" height="17" rx="2" fill="#b65b4f"/>
<text x="659.06" y="413" text-anchor="end" font-family="Arial, sans-serif" font-size="12" fill="#263747">-40.15</text>
<text x="368" y="441" text-anchor="end" font-family="Arial, sans-serif" font-size="13" fill="#263747">M60 Argentina vs Belgium</text>
<rect x="656.43" y="428" width="48.57" height="17" rx="2" fill="#b65b4f"/>
<text x="649.43" y="441" text-anchor="end" font-family="Arial, sans-serif" font-size="12" fill="#263747">-50.08</text>
<text x="368" y="469" text-anchor="end" font-family="Arial, sans-serif" font-size="13" fill="#263747">M54 Germany vs Algeria</text>
<rect x="641.96" y="456" width="63.04" height="17" rx="2" fill="#b65b4f"/>
<text x="634.96" y="469" text-anchor="end" font-family="Arial, sans-serif" font-size="12" fill="#263747">-65</text>
<text x="368" y="497" text-anchor="end" font-family="Arial, sans-serif" font-size="13" fill="#263747">M55 Argentina vs Switzerland</text>
<rect x="609.07" y="484" width="95.93" height="17" rx="2" fill="#b65b4f"/>
<text x="602.07" y="497" text-anchor="end" font-family="Arial, sans-serif" font-size="12" fill="#263747">-98.92</text>
<text x="368" y="525" text-anchor="end" font-family="Arial, sans-serif" font-size="13" fill="#263747">M59 Netherlands vs Costa Rica</text>
<rect x="567.29" y="512" width="137.71" height="17" rx="2" fill="#b65b4f"/>
<text x="560.29" y="525" text-anchor="end" font-family="Arial, sans-serif" font-size="12" fill="#263747">-142</text>
<text x="560" y="578" text-anchor="middle" font-family="Arial, sans-serif" font-size="13" fill="#4e5b68">Winner-perspective ΔE_m in minutes (descriptive; not a causal estimate)</text>
</svg>
