<svg xmlns="http://www.w3.org/2000/svg" width="1120" height="608" viewBox="0 0 1120 608" role="img" aria-labelledby="title desc">
<title id="title">2014 World Cup: winner-perspective knockout ΔE_m′</title>
<desc id="desc">Winner E_m/fouls minus opponent E_m/fouls; sorted high to low; rho = 2.</desc>
<rect width="1120" height="608" fill="#fbfaf7"/>
<text x="36" y="44" font-family="Arial, sans-serif" font-size="24" font-weight="700" fill="#162434">2014 World Cup: winner-perspective knockout ΔE_m′</text>
<text x="36" y="76" font-family="Arial, sans-serif" font-size="14" fill="#4e5b68">Winner E_m/fouls minus opponent E_m/fouls; sorted high to low; rho = 2.</text>
<line x1="705.00" y1="98" x2="705.00" y2="536" stroke="#687683" stroke-width="1"/>
<text x="368" y="133" text-anchor="end" font-family="Arial, sans-serif" font-size="13" fill="#263747">M52 Costa Rica vs Greece</text>
<rect x="705.00" y="120" width="249.99" height="17" rx="2" fill="#2f718c"/>
<text x="961.99" y="133" text-anchor="start" font-family="Arial, sans-serif" font-size="12" fill="#263747">10.557</text>
<text x="368" y="161" text-anchor="end" font-family="Arial, sans-serif" font-size="13" fill="#263747">M53 France vs Nigeria</text>
<rect x="705.00" y="148" width="80.97" height="17" rx="2" fill="#2f718c"/>
<text x="792.97" y="161" text-anchor="start" font-family="Arial, sans-serif" font-size="12" fill="#263747">3.419</text>
<text x="368" y="189" text-anchor="end" font-family="Arial, sans-serif" font-size="13" fill="#263747">M58 Germany vs France</text>
<rect x="705.00" y="176" width="75.25" height="17" rx="2" fill="#2f718c"/>
<text x="787.25" y="189" text-anchor="start" font-family="Arial, sans-serif" font-size="12" fill="#263747">3.178</text>
<text x="368" y="217" text-anchor="end" font-family="Arial, sans-serif" font-size="13" fill="#263747">M64 Germany vs Argentina</text>
<rect x="705.00" y="204" width="42.34" height="17" rx="2" fill="#2f718c"/>
<text x="754.34" y="217" text-anchor="start" font-family="Arial, sans-serif" font-size="12" fill="#263747">1.788</text>
<text x="368" y="245" text-anchor="end" font-family="Arial, sans-serif" font-size="13" fill="#263747">M62 Argentina vs Netherlands</text>
<rect x="705.00" y="232" width="24.47" height="17" rx="2" fill="#2f718c"/>
<text x="736.47" y="245" text-anchor="start" font-family="Arial, sans-serif" font-size="12" fill="#263747">1.033</text>
<text x="368" y="273" text-anchor="end" font-family="Arial, sans-serif" font-size="13" fill="#263747">M57 Brazil vs Colombia</text>
<rect x="685.51" y="260" width="19.49" height="17" rx="2" fill="#b65b4f"/>
<text x="678.51" y="273" text-anchor="end" font-family="Arial, sans-serif" font-size="12" fill="#263747">-0.823</text>
<text x="368" y="301" text-anchor="end" font-family="Arial, sans-serif" font-size="13" fill="#263747">M61 Germany vs Brazil</text>
<rect x="651.22" y="288" width="53.78" height="17" rx="2" fill="#b65b4f"/>
<text x="644.22" y="301" text-anchor="end" font-family="Arial, sans-serif" font-size="12" fill="#263747">-2.271</text>
<text x="368" y="329" text-anchor="end" font-family="Arial, sans-serif" font-size="13" fill="#263747">M50 Colombia vs Uruguay</text>
<rect x="646.70" y="316" width="58.30" height="17" rx="2" fill="#b65b4f"/>
<text x="639.70" y="329" text-anchor="end" font-family="Arial, sans-serif" font-size="12" fill="#263747">-2.462</text>
<text x="368" y="357" text-anchor="end" font-family="Arial, sans-serif" font-size="13" fill="#263747">M55 Argentina vs Switzerland</text>
<rect x="646.30" y="344" width="58.70" height="17" rx="2" fill="#b65b4f"/>
<text x="639.30" y="357" text-anchor="end" font-family="Arial, sans-serif" font-size="12" fill="#263747">-2.479</text>
<text x="368" y="385" text-anchor="end" font-family="Arial, sans-serif" font-size="13" fill="#263747">M54 Germany vs Algeria</text>
<rect x="643.81" y="372" width="61.19" height="17" rx="2" fill="#b65b4f"/>
<text x="636.81" y="385" text-anchor="end" font-family="Arial, sans-serif" font-size="12" fill="#263747">-2.584</text>
<text x="368" y="413" text-anchor="end" font-family="Arial, sans-serif" font-size="13" fill="#263747">M49 Brazil vs Chile</text>
<rect x="638.74" y="400" width="66.26" height="17" rx="2" fill="#b65b4f"/>
<text x="631.74" y="413" text-anchor="end" font-family="Arial, sans-serif" font-size="12" fill="#263747">-2.798</text>
<text x="368" y="441" text-anchor="end" font-family="Arial, sans-serif" font-size="13" fill="#263747">M51 Netherlands vs Mexico</text>
<rect x="630.52" y="428" width="74.48" height="17" rx="2" fill="#b65b4f"/>
<text x="623.52" y="441" text-anchor="end" font-family="Arial, sans-serif" font-size="12" fill="#263747">-3.145</text>
<text x="368" y="469" text-anchor="end" font-family="Arial, sans-serif" font-size="13" fill="#263747">M60 Argentina vs Belgium</text>
<rect x="630.02" y="456" width="74.98" height="17" rx="2" fill="#b65b4f"/>
<text x="623.02" y="469" text-anchor="end" font-family="Arial, sans-serif" font-size="12" fill="#263747">-3.166</text>
<text x="368" y="497" text-anchor="end" font-family="Arial, sans-serif" font-size="13" fill="#263747">M56 Belgium vs United States</text>
<rect x="551.17" y="484" width="153.83" height="17" rx="2" fill="#b65b4f"/>
<text x="544.17" y="497" text-anchor="end" font-family="Arial, sans-serif" font-size="12" fill="#263747">-6.496</text>
<text x="368" y="525" text-anchor="end" font-family="Arial, sans-serif" font-size="13" fill="#263747">M59 Netherlands vs Costa Rica</text>
<rect x="429.58" y="512" width="275.42" height="17" rx="2" fill="#b65b4f"/>
<text x="422.58" y="525" text-anchor="end" font-family="Arial, sans-serif" font-size="12" fill="#263747">-11.631</text>
<text x="560" y="578" text-anchor="middle" font-family="Arial, sans-serif" font-size="13" fill="#4e5b68">Winner-perspective ΔE_m′ in minutes per foul (descriptive; not a causal estimate)</text>
</svg>
