<svg xmlns="http://www.w3.org/2000/svg" width="1120" height="636" viewBox="0 0 1120 636" role="img" aria-labelledby="title desc">
<title id="title">2014 World Cup: suspension exposure per foul</title>
<desc id="desc">Knockout-stage teams; primary rho = 2, mu = 1.25; all-tournament foul denominator.</desc>
<rect width="1120" height="636" fill="#fbfaf7"/>
<text x="36" y="44" font-family="Arial, sans-serif" font-size="24" font-weight="700" fill="#162434">2014 World Cup: suspension exposure per foul</text>
<text x="36" y="76" font-family="Arial, sans-serif" font-size="14" fill="#4e5b68">Knockout-stage teams; primary rho = 2, mu = 1.25; all-tournament foul denominator.</text>
<line x1="380.00" y1="98" x2="380.00" y2="564" stroke="#687683" stroke-width="1"/>
<text x="368" y="133" text-anchor="end" font-family="Arial, sans-serif" font-size="13" fill="#263747">Colombia</text>
<rect x="380.00" y="120" width="168.30" height="17" rx="2" fill="#2f718c"/>
<text x="555.30" y="133" text-anchor="start" font-family="Arial, sans-serif" font-size="12" fill="#263747">4.14</text>
<text x="368" y="161" text-anchor="end" font-family="Arial, sans-serif" font-size="13" fill="#263747">Netherlands</text>
<rect x="380.00" y="148" width="182.90" height="17" rx="2" fill="#2f718c"/>
<text x="569.90" y="161" text-anchor="start" font-family="Arial, sans-serif" font-size="12" fill="#263747">4.5</text>
<text x="368" y="189" text-anchor="end" font-family="Arial, sans-serif" font-size="13" fill="#263747">Switzerland</text>
<rect x="380.00" y="176" width="190.85" height="17" rx="2" fill="#2f718c"/>
<text x="577.85" y="189" text-anchor="start" font-family="Arial, sans-serif" font-size="12" fill="#263747">4.695</text>
<text x="368" y="217" text-anchor="end" font-family="Arial, sans-serif" font-size="13" fill="#263747">Germany</text>
<rect x="380.00" y="204" width="214.32" height="17" rx="2" fill="#2f718c"/>
<text x="601.32" y="217" text-anchor="start" font-family="Arial, sans-serif" font-size="12" fill="#263747">5.273</text>
<text x="368" y="245" text-anchor="end" font-family="Arial, sans-serif" font-size="13" fill="#263747">Algeria</text>
<rect x="380.00" y="232" width="264.72" height="17" rx="2" fill="#2f718c"/>
<text x="651.72" y="245" text-anchor="start" font-family="Arial, sans-serif" font-size="12" fill="#263747">6.513</text>
<text x="368" y="273" text-anchor="end" font-family="Arial, sans-serif" font-size="13" fill="#263747">France</text>
<rect x="380.00" y="260" width="269.79" height="17" rx="2" fill="#2f718c"/>
<text x="656.79" y="273" text-anchor="start" font-family="Arial, sans-serif" font-size="12" fill="#263747">6.637</text>
<text x="368" y="301" text-anchor="end" font-family="Arial, sans-serif" font-size="13" fill="#263747">Argentina</text>
<rect x="380.00" y="288" width="304.42" height="17" rx="2" fill="#2f718c"/>
<text x="691.42" y="301" text-anchor="start" font-family="Arial, sans-serif" font-size="12" fill="#263747">7.489</text>
<text x="368" y="329" text-anchor="end" font-family="Arial, sans-serif" font-size="13" fill="#263747">Belgium</text>
<rect x="380.00" y="316" width="328.36" height="17" rx="2" fill="#2f718c"/>
<text x="715.36" y="329" text-anchor="start" font-family="Arial, sans-serif" font-size="12" fill="#263747">8.078</text>
<text x="368" y="357" text-anchor="end" font-family="Arial, sans-serif" font-size="13" fill="#263747">Costa Rica</text>
<rect x="380.00" y="344" width="371.85" height="17" rx="2" fill="#2f718c"/>
<text x="758.85" y="357" text-anchor="start" font-family="Arial, sans-serif" font-size="12" fill="#263747">9.148</text>
<text x="368" y="385" text-anchor="end" font-family="Arial, sans-serif" font-size="13" fill="#263747">Brazil</text>
<rect x="380.00" y="372" width="374.36" height="17" rx="2" fill="#2f718c"/>
<text x="761.36" y="385" text-anchor="start" font-family="Arial, sans-serif" font-size="12" fill="#263747">9.21</text>
<text x="368" y="413" text-anchor="end" font-family="Arial, sans-serif" font-size="13" fill="#263747">Nigeria</text>
<rect x="380.00" y="400" width="391.96" height="17" rx="2" fill="#2f718c"/>
<text x="778.96" y="413" text-anchor="start" font-family="Arial, sans-serif" font-size="12" fill="#263747">9.643</text>
<text x="368" y="441" text-anchor="end" font-family="Arial, sans-serif" font-size="13" fill="#263747">Chile</text>
<rect x="380.00" y="428" width="397.49" height="17" rx="2" fill="#2f718c"/>
<text x="784.49" y="441" text-anchor="start" font-family="Arial, sans-serif" font-size="12" fill="#263747">9.779</text>
<text x="368" y="469" text-anchor="end" font-family="Arial, sans-serif" font-size="13" fill="#263747">United States</text>
<rect x="380.00" y="456" width="437.10" height="17" rx="2" fill="#2f718c"/>
<text x="824.10" y="469" text-anchor="start" font-family="Arial, sans-serif" font-size="12" fill="#263747">10.754</text>
<text x="368" y="497" text-anchor="end" font-family="Arial, sans-serif" font-size="13" fill="#263747">Greece</text>
<rect x="380.00" y="484" width="552.65" height="17" rx="2" fill="#2f718c"/>
<text x="939.65" y="497" text-anchor="start" font-family="Arial, sans-serif" font-size="12" fill="#263747">13.596</text>
<text x="368" y="525" text-anchor="end" font-family="Arial, sans-serif" font-size="13" fill="#263747">Mexico</text>
<rect x="380.00" y="512" width="553.43" height="17" rx="2" fill="#2f718c"/>
<text x="940.43" y="525" text-anchor="start" font-family="Arial, sans-serif" font-size="12" fill="#263747">13.616</text>
<text x="368" y="553" text-anchor="end" font-family="Arial, sans-serif" font-size="13" fill="#263747">Uruguay</text>
<rect x="380.00" y="540" width="570.18" height="17" rx="2" fill="#2f718c"/>
<text x="957.18" y="553" text-anchor="start" font-family="Arial, sans-serif" font-size="12" fill="#263747">14.027</text>
<text x="560" y="606" text-anchor="middle" font-family="Arial, sans-serif" font-size="13" fill="#4e5b68">Suspension-exposure minutes per foul (descriptive; not a causal estimate)</text>
</svg>
